<svg xmlns="http://www.w3.org/2000/svg" fill="none" viewBox="-0.5 -0.5 48 48" height="48" width="48"><path fill="#000" fill-rule="evenodd" d="M9.792 1.958a7.833 7.833 0 0 0 -7.833 7.833v27.417a7.833 7.833 0 0 0 7.833 7.833h27.417a7.833 7.833 0 0 0 7.833 -7.833V9.792a7.833 7.833 0 0 0 -7.833 -7.833H9.792Zm2.36 13.532a3.339 3.339 0 1 0 0 -6.678 3.339 3.339 0 0 0 0 6.678ZM15.488 38.188V18.16H8.813V38.188h6.678Zm8.679 -20.028H18.16V38.188h6.008v-12.083c0.774 -1.257 2.109 -2.605 4.005 -2.605 2.671 0 3.339 2.671 3.339 4.007V38.188H38.188v-10.681c0 -3.58 -1.561 -9.347 -7.344 -9.347 -3.678 0 -5.718 1.341 -6.678 2.599V18.16Z" clip-rule="evenodd" stroke-width="1"></path></svg>